<svg xmlns="http://www.w3.org/2000/svg" xmlns:xlink="http://www.w3.org/1999/xlink" width="206" height="206" viewBox="0 0 206 206"><defs><style>.a{fill:#f2f4ff;}.b{fill:#f2f2f2;}.c{fill:#3f3d56;}.d{fill:#9493a5;stroke:#380e7f;}.e{fill:#6c63ff;}.f{fill:#fff;}.g{fill:#2f2e41;}.h{fill:#ffb9b9;}.i{opacity:0.1;}.j{fill:#9f616a;}.k{fill:#d0cde1;}.l{filter:url(#a);}</style><filter id="a" x="0" y="0" width="206" height="206" filterUnits="userSpaceOnUse"><feOffset dy="3" input="SourceAlpha"/><feGaussianBlur stdDeviation="3" result="b"/><feFlood flood-opacity="0.161"/><feComposite operator="in" in2="b"/><feComposite in="SourceGraphic"/></filter></defs><g transform="translate(9 6)"><g class="l" transform="matrix(1, 0, 0, 1, -9, -6)"><rect class="a" width="188" height="188" rx="30" transform="translate(9 6)"/></g><g transform="translate(14.486 14.753)"><path class="b" d="M608.131,537.816l-50.906.169c-13.505-4.058-24.57-18.153-24.64-39.285a59.83,59.83,0,0,1,.719-9.508l41-9.212,31.631-7.106a62.916,62.916,0,0,1,6.5,6.756L582.188,495.6l-14.268,7.535,16.034-5.532,33.279-11.481a80.7,80.7,0,0,1,5.534,9.921l-10.041,10.377,11.359-7.436.145.342C631.427,516.418,622.495,537.769,608.131,537.816Z" transform="translate(-468.34 -381.037)"/><path class="b" d="M603.068,424.177c-7.7,2.211-17.163,5-26.894,7.908-14.07,4.2-28.7,8.631-39.344,11.87l.007-.038a14.636,14.636,0,0,1,2.7-6.268c7.888-10.256,17.932-17.42,29.111-20.081h0a41.956,41.956,0,0,1,9.595-1.145A44.261,44.261,0,0,1,603.068,424.177Z" transform="translate(-471.644 -337.123)"/><ellipse class="c" cx="50.637" cy="3.776" rx="50.637" ry="3.776" transform="translate(29.364 154.027)"/><path class="b" d="M315.766,271.037c0,27.281-16.218,36.807-36.225,36.807s-36.225-9.526-36.225-36.807,36.225-61.988,36.225-61.988S315.766,243.755,315.766,271.037Z" transform="translate(-243.316 -175.805)"/><path class="c" d="M106.17,244.308l.371-22.832,15.44-28.247L106.6,217.895l.167-10.266,10.641-20.436-10.6,17.719h0l.3-18.464,11.395-16.27-11.348,13.366.187-33.857-1.178,44.821.1-1.849L94.678,174.926l11.4,21.282L105,216.829l-.032-.547L91.61,197.621l13.315,20.6-.135,2.579-.024.039.011.212-2.739,52.318H105.7l.439-27.023L119.419,225.8Z" transform="translate(-71.265 -116.443)"/><path class="d" d="M514.191,65.832V209.79a6.471,6.471,0,0,1-6.469,6.465H449.278a6.458,6.458,0,0,1-6.469-6.465V65.832a6.469,6.469,0,0,1,6.47-6.47h8.745v1.122a5.327,5.327,0,0,0,5.326,5.328h29.724a5.284,5.284,0,0,0,3.158-1.039,4.952,4.952,0,0,0,.524-.44,5.312,5.312,0,0,0,1.643-3.849V59.362h9.321A6.467,6.467,0,0,1,514.191,65.832Z" transform="translate(-398.504 -59.362)"/><path class="e" d="M554.175,281.2c0,4.017-2.386,5.421-5.332,5.423l-.2,0q-.2,0-.405-.018c-2.659-.187-4.725-1.661-4.727-5.4,0-3.867,4.937-8.748,5.308-9.109h0l.021-.021S554.173,277.183,554.175,281.2Z" transform="translate(-476.837 -224.834)"/><path class="c" d="M559.139,286.008l1.95-2.727-1.954,3.026-.005.313q-.2,0-.405-.018l.208-4.019,0-.031,0-.006.02-.38-1.962-3.032,1.968,2.747,0,.081.157-3.037-1.68-3.133,1.7,2.6.162-6.3v0l-.025,4.965,1.67-1.969-1.677,2.4-.043,2.719,1.559-2.61-1.565,3.01-.024,1.512,2.263-3.633-2.272,4.161Z" transform="translate(-487.328 -224.833)"/><path class="e" d="M296.835,484.7H246.2v16.722l4.239-4.239h46.4Z" transform="translate(-191.52 -377.054)"/><rect class="f" width="28.487" height="2.31" transform="translate(65.975 110.678)"/><rect class="f" width="28.487" height="2.31" transform="translate(65.975 114.143)"/><path class="e" d="M246.2,382.2h50.637v16.722l-4.239-4.239H246.2Z" transform="translate(-191.52 -297.318)"/><rect class="f" width="28.487" height="2.31" transform="translate(63.31 88.136)"/><rect class="f" width="28.487" height="2.31" transform="translate(63.31 91.601)"/><path class="b" d="M480.515,205.808v40.774h54.634V205.808Zm7.04.513a.88.88,0,1,1-.88.88.88.88,0,0,1,.88-.88Zm-5.28,1.76a.88.88,0,1,1,.88-.88.88.88,0,0,1-.88.88Zm1.76-.88a.88.88,0,1,1,.88.88.88.88,0,0,1-.88-.88Zm30.287,27.941H484.915V213.288h29.407Z" transform="translate(-427.836 -173.284)"/><rect class="f" width="1.76" height="0.22" transform="translate(104.38 33.258)"/><rect class="f" width="1.76" height="0.22" transform="translate(104.38 33.918)"/><rect class="f" width="1.76" height="0.22" transform="translate(104.38 34.577)"/><rect class="f" width="13.274" height="0.66" transform="translate(91.106 39.638)"/><rect class="f" width="13.274" height="0.66" transform="translate(91.106 41.911)"/><rect class="f" width="13.274" height="0.66" transform="translate(91.106 44.184)"/><rect class="f" width="13.274" height="0.66" transform="translate(91.106 46.458)"/><rect class="f" width="13.274" height="0.66" transform="translate(91.106 48.731)"/><rect class="f" width="13.274" height="0.66" transform="translate(91.106 51.004)"/><rect class="f" width="13.274" height="0.66" transform="translate(91.106 53.278)"/><rect class="f" width="13.274" height="0.66" transform="translate(91.106 55.551)"/><rect class="f" width="13.274" height="0.66" transform="translate(91.106 57.824)"/><rect class="f" width="13.274" height="0.66" transform="translate(91.106 60.098)"/><circle class="f" cx="0.88" cy="0.88" r="0.88" transform="translate(57.959 62.518)"/><circle class="f" cx="0.88" cy="0.88" r="0.88" transform="translate(60.966 62.518)"/><circle class="f" cx="0.88" cy="0.88" r="0.88" transform="translate(63.973 62.518)"/><rect class="e" width="13.274" height="3.74" transform="translate(91.106 67.725)"/><path class="g" d="M353.569,594.882l-.487,17.03-5.19,19.949s1.135,3.406.324,4.217-4.541,2.271-4.541,2.271l3.082-42.494Z" transform="translate(-321.387 -475.948)"/><path class="g" d="M335.243,778.7s-1.851,4.072.74,4.442,14.56,1.357,13.82-.74-9.748-4.072-9.748-4.072Z" transform="translate(-314.329 -618.658)"/><path class="g" d="M306.431,526.783s1.946,10.542,3.244,12.326-.649,14.759-.649,14.759-2.919,18.652-1.622,21.571.973,1.946.811,3.568-.487,2.919,0,4.379a12.831,12.831,0,0,1,.649,2.109c.162.811,0,5.19,0,5.19s6.974,2.433,8.11-1.135c0,0-1.622-2.271-1.135-4.055a21.6,21.6,0,0,0,.811-5.514v-3.406l7.461-27.9,1.784-10.056s-.487-10.218-2.271-11.191S306.431,526.783,306.431,526.783Z" transform="translate(-292.414 -422.933)"/><path class="g" d="M316.627,809.344s-2.433,5.352.973,5.839,19.138,1.784,18.165-.973-12.813-5.352-12.813-5.352Z" transform="translate(-299.691 -642.402)"/><circle class="h" cx="6.488" cy="6.488" r="6.488" transform="translate(13.532 44.171)"/><path class="h" d="M312.932,299.374l.121,8.285,7.954.027s-2.019-6.486-1.114-7.842S312.932,299.374,312.932,299.374Z" transform="translate(-297.471 -245.848)"/><path class="c" d="M310.072,340.84s-5.677-7.3-10.056-4.217-6,10.38-6,10.38l.973,20.436s2.433,2.919.973,4.866-2.271,1.46-1.135,2.919,2.433,2.6,1.946,3.082.487.811.487.811l17.192.487s-.487-.649.973-2.6-.324-4.541,0-5.514.649.162.811-2.108S310.072,340.84,310.072,340.84Z" transform="translate(-282.756 -274.456)"/><path class="h" d="M359.011,541s.324,4.055,2.757,4.7a1.908,1.908,0,0,0,2.1-.9,3.983,3.983,0,0,0,.127-4.469l-.6-.961Z" transform="translate(-333.317 -432.773)"/><path class="c" d="M290.657,319.347a28.36,28.36,0,0,0,0,3.73,1.551,1.551,0,0,1,0,1.46,2.684,2.684,0,0,0,.162,2.271c.324.162-.649,1.622-.324,2.6a7.035,7.035,0,0,0,.811,1.622c.162.324.423.906.423.906s4.767-10.15,8.659-7.718a28.209,28.209,0,0,0,6.974,3.244S305.254,316.1,290.657,319.347Z" transform="translate(-279.965 -261.154)"/><path class="c" d="M304.48,355.211s-5.19.487-4.866,7.3-.487,17.517-.487,17.517,8.92,13.624,10.38,14.6,1.622.811,1.46,1.622-.324,1.46.324,2.108a5.6,5.6,0,0,0,1.3.973s5.19-1.784,4.7-3.406a16.687,16.687,0,0,0-2.757-4.217s-3.893-6.325-4.055-7.3-.162-.811-.649-1.3a7.615,7.615,0,0,1-1.784-3.406V376.62l1.36-16.468a4.774,4.774,0,0,0-1.266-3.7A4.13,4.13,0,0,0,304.48,355.211Z" transform="translate(-286.733 -289.476)"/><path class="g" d="M308.629,247.792a2.643,2.643,0,0,0,2.45-.561,2,2,0,0,0,.4-2.4,3.159,3.159,0,0,0-1.868-1.188,16.538,16.538,0,0,0-4.912-.749,4.41,4.41,0,0,0-2.3.478c-.336.2-.621.483-.953.692a11.894,11.894,0,0,1-2.016.781,5.172,5.172,0,0,0-2.948,3.122,6.234,6.234,0,0,0-.286,1.466,8.035,8.035,0,0,0,.7,3.982c.905,1.973,2.627,3.633,2.871,5.79.927-.778,1.2-2.084,1.917-3.059a3.965,3.965,0,0,1,2.165-1.469,1.261,1.261,0,0,0,.656-.293,1.086,1.086,0,0,0,.205-.591l.445-3.205a2.762,2.762,0,0,1,.714-1.793,2.537,2.537,0,0,1,1.063-.461,17.138,17.138,0,0,1,2.774-.452" transform="translate(-284.425 -202.137)"/><path class="i" d="M302.68,477.514l9.1,11.815S303.4,482.321,302.68,477.514Z" transform="translate(-289.496 -384.647)"/><path class="i" d="M98.411,359.249l-.086,11.159,5.288,7.932-4.327-8.893Z" transform="translate(-76.488 -279.463)"/><path class="g" d="M780.406,748.881l-1.054-.783s-.7,3.9.081,4.48,3.7,1.557,3.7,2.724,6.616,2.724,6.811.973a3.859,3.859,0,0,0-.584-2.724s-3.113-3.113-3.5-3.7-1.362-1.751-1.362-1.751Z" transform="translate(-660.081 -595.136)"/><path class="g" d="M795.344,525.962s-.029.171-.08.484c-.047.278-.111.671-.189,1.156-.817,4.987-3.2,19.669-3.04,20.153.195.584,1.557,2.724,0,3.308a1.207,1.207,0,0,0-.484.527,11.3,11.3,0,0,0-.823,1.942,85.311,85.311,0,0,0-2.495,9.988c-.251,1.312-.422,2.366-.473,2.919a1.586,1.586,0,0,0-.006.385c.194.778-1.168,3.5-1.751,4.281s-1.557,1.557-1.362,2.335-4.865,2.919-5.448,1.557a24.865,24.865,0,0,1-.778-2.53c-.195-.389-.389-3.113.584-3.5s.389-7.2,1.362-8.562a18.7,18.7,0,0,0,1.341-3.835c.2-.724.411-1.494.613-2.267.821-3.166,1.549-6.351,1.549-6.351l-.195-22.767,10.7-1.362.274.605.547,1.2Z" transform="translate(-659.451 -420.669)"/><path class="g" d="M850.329,699.259s1.557-1.557,2.335,0,1.557,7.589,2.919,8.951,3.113,8.173,1.167,8.562-4.086-.584-4.281-1.751-4.281-7.2-4.281-7.783,2.724-2.724,2.724-2.724Z" transform="translate(-713.852 -556.606)"/><path class="g" d="M750.058,483.4s2.53,22.767,3.113,24.907,3.7,10.313,4.67,11.675,7.2,12.453,7.978,13.037,2.335,2.141,2.335,2.141,2.919,2.919,3.308,3.5,3.7-1.167,3.892-2.335a12,12,0,0,0-.389-3.892c-.195-.778.389-1.946-.195-2.53s-3.5-3.5-3.5-4.865-5.059-9.34-7.005-11.091a5.8,5.8,0,0,1-1.557-4.67v-11.87l10.7-3.308s-.584-9.34-1.946-9.34S752.2,481.647,750.058,483.4Z" transform="translate(-637.516 -388.808)"/><circle class="j" cx="6.421" cy="6.421" r="6.421" transform="translate(121.882 49.251)"/><path class="j" d="M804.657,321.213s-.778,2.919-1.751,3.7,2.53,4.086,2.53,4.086l6.616.389,1.168-3.7s-2.14-4.281-1.557-7.005S804.657,321.213,804.657,321.213Z" transform="translate(-678.494 -260.481)"/><path class="c" d="M762.89,347.713s1.751.195,2.141.778,3.113,2.335,5.254,1.946,3.5-.973,3.892-.778,1.168,4.281,1.168,4.281l-2.14,6.227.389,17.124.584,4.67s1.168-1.557-3.5-.584-10.7-.778-12.648-.973-5.254-.778-5.448-1.946a30.79,30.79,0,0,1,.584-5.448l3.113-13.037,1.946-7.005Z" transform="translate(-639.451 -283.673)"/><path class="k" d="M751.231,342.3s-1.646-.873-2.23-.095-7.978,1.946-7.978,2.53-1.557,16.345-1.168,17.707a3.965,3.965,0,0,1-.778,2.919l-1.362,5.838s-3.7,11.091-2.14,11.481a10.131,10.131,0,0,0,3.5,0c.584,0,.389-7.394,1.946-9.34s3.7-6.811,4.086-7.783,5.254-14.4,5.059-15.956S751.231,342.3,751.231,342.3Z" transform="translate(-625.952 -279.134)"/><path class="k" d="M829.225,347.713s1.557,0,1.751.389a21.291,21.291,0,0,0,2.919,3.5c.778.584,3.5,3.113,3.5,3.7s-5.643,4.865-5.643,4.865-2.335,11.481-1.168,15.372,2.919,13.232,2.141,13.816-2.53.778-2.53,0-1.168-9.146-2.14-10.9-3.892-12.843-2.724-15.956S829.225,347.713,829.225,347.713Z" transform="translate(-695.862 -283.673)"/><path class="j" d="M728.138,434.453s-.195,6.032,1.946,9.146a37,37,0,0,1,3.5,6.616s3.5-.973,4.086-2.14,4.281-.195,4.281-.584-4.475-2.335-4.865-2.724-1.751-.389-2.53-1.168a5.15,5.15,0,0,1-.973-2.53l-.778-5.059Z" transform="translate(-620.46 -351.149)"/><path class="g" d="M792.836,271.154a3.7,3.7,0,0,1-1.44-.33,1.928,1.928,0,0,1-.493-2.855,3.7,3.7,0,0,1,.684-.55l1.479-1.007a7.234,7.234,0,0,1,2.087-1.108,6.516,6.516,0,0,1,2.133-.126,14.416,14.416,0,0,1,4.086.743,6.839,6.839,0,0,1,3.311,2.423,7.279,7.279,0,0,1,.58,6.348,21.532,21.532,0,0,1-3.291,5.7l-.67-3.268a1.206,1.206,0,0,0-.379-.782c-.6-.428-1.338.451-2.076.445a1.243,1.243,0,0,1-1.053-.833,4.742,4.742,0,0,1-.233-1.4,3.828,3.828,0,0,0-1.386-2.947C795.291,271.092,793.829,271.244,792.836,271.154Z" transform="translate(-668.955 -219.441)"/><path class="i" d="M802.735,533.957s.657,19.01,1.046,19.594,0-19.653,0-19.653Z" transform="translate(-678.494 -428.507)"/><path class="k" d="M731.951,354.722h-1.557s-6.616,8.951-5.838,9.535,0,2.14,0,2.14L723,369.316s-1.946,1.751-1.362,2.14A7.11,7.11,0,0,1,723,373.4s3.892-.584,5.059,1.751l2.524-3.186Z" transform="translate(-615.323 -289.126)"/><path class="j" d="M763.654,392.783a17.139,17.139,0,0,1-9.146-2.919l-4.865-2.141s-4.281-6.616-4.67-5.448.584,3.5.584,3.5-6.375,1.215-6.024,3.076c.072.383,3.3-.547,3.3-.547s-.584,3.7,2.724,3.892,4.281-.584,4.281-.584,14.01,11.675,16.345,7.978S763.654,392.783,763.654,392.783Z" transform="translate(-629.318 -310.452)"/><path class="k" d="M849.752,378.379l2.141.778v5.838l.778,1.167s-.195,2.335-.778,2.919-1.751.389-1.362,1.751a7.378,7.378,0,0,1,.195,2.724s-3.5,4.475-3.7,3.892-2.919-7.784-3.308-7.784,3.892-11.286,3.892-11.286Z" transform="translate(-710.356 -307.529)"/><path class="g" d="M751.243,499.26s-2.012-1.946-1.006-2.043,4.509-2.043,5.092-1.07S751.243,499.26,751.243,499.26Z" transform="translate(-637.436 -398.93)"/><path class="e" d="M407.59,704.3c0,4.99-2.966,6.732-6.626,6.732q-.127,0-.254,0c-.17,0-.337-.012-.5-.023-3.3-.234-5.868-2.066-5.868-6.707,0-4.8,6.137-10.863,6.6-11.312h0l.027-.026S407.59,699.305,407.59,704.3Z" transform="translate(-360.798 -552.242)"/><path class="c" d="M413.757,710.264l2.423-3.386-2.43,3.758-.006.389c-.17,0-.337-.012-.5-.023l.261-4.992,0-.039,0-.007.025-.471-2.435-3.767,2.443,3.414.006.1.2-3.772-2.085-3.893,2.111,3.231.205-7.82v0l-.034,6.167,2.076-2.445-2.084,2.976-.055,3.377,1.938-3.241-1.946,3.738-.031,1.878,2.814-4.511-2.824,5.167Z" transform="translate(-373.832 -552.242)"/></g></g></svg>