<svg xmlns="http://www.w3.org/2000/svg" xmlns:xlink="http://www.w3.org/1999/xlink" width="206" height="206" viewBox="0 0 206 206"><defs><style>.a{fill:#f2f4ff;}.b{fill:#9f616a;}.c,.f,.i{mix-blend-mode:multiply;isolation:isolate;}.d,.f{fill:#bccdd1;}.e{fill:#cfcde0;}.g{fill:#56263c;}.h{fill:#fff;}.i{fill:#d1c3ca;}.j{fill:#dc5bab;}.k{fill:#6915cf;}.l{filter:url(#a);}</style><filter id="a" x="0" y="0" width="206" height="206" filterUnits="userSpaceOnUse"><feOffset dy="3" input="SourceAlpha"/><feGaussianBlur stdDeviation="3" result="b"/><feFlood flood-opacity="0.161"/><feComposite operator="in" in2="b"/><feComposite in="SourceGraphic"/></filter></defs><g transform="translate(9 6)"><g class="l" transform="matrix(1, 0, 0, 1, -9, -6)"><rect class="a" width="188" height="188" rx="30" transform="translate(9 6)"/></g><g transform="translate(-177.68 -431)"><path d="M314.976,516.073c-1.277-3.671-3.042-6.7-3.211-10.69a41.21,41.21,0,0,1,.613-6.02c.468-4.548,3.494-9.774,2.184-14.329-1.349-4.688-5.484-6.4-9.464-8.488-2.026-1.063-4.759-1.927-6.538-3.365s-2.313-3.8-2.649-5.926c-.713-4.5-.087-9.224-1.215-13.686a17.013,17.013,0,0,0-8.089-10.95c-8.4-4.892-22.157,2.28-28.391,8.55l1.1.483c.11.669.837.055.944.73,1.428,9.01,8.346,15.889,9.614,25.127.839,6.118-1.2,12.45-2.906,18.252a53.631,53.631,0,0,0-1.9,19.246c.544,6.295,3.422,14,7.754,18.653,2.456,2.639,5.8,4.017,8.884,5.786a42.262,42.262,0,0,0,9.3,4.108c2.85.806,6.193.763,9.151.81,9.7.155,15.952-7.442,16.565-16.788A29.3,29.3,0,0,0,314.976,516.073Z"/><path class="b" d="M276.367,504.542c-1.175,5.665.975,12.647,5.436,16.253a8.056,8.056,0,0,0,3.865,2.05c.4,2.043-2.961,4.227-4.367,5.269a15.306,15.306,0,0,1-7.187,2.947,21.774,21.774,0,0,1-11.947-1.588A22.85,22.85,0,0,1,257,526.159c-1.642-1.4-1.979-2.456-1.4-4.471a46.9,46.9,0,0,0,2.048-11.133c.091-2.284.511-4.591.407-6.89-.078-1.707-.819-4.47-.225-6.017,1.349,1.4,3.654,1.818,5.316,2.72a24.171,24.171,0,0,0,4.977,2.049c1.674.473,3.466.609,5.109,1.174,1.041.357,2.779.814,3.335,1.526"/><g class="c"><path class="d" d="M258.054,504.345c.6.469,1.189.941,1.805,1.378a28.6,28.6,0,0,0,10.492,5.049,14,14,0,0,0,5.646.106c.11-.022.217-.06.326-.085a17.035,17.035,0,0,1-.011-5.928,11.889,11.889,0,0,0-3.078-1.274c-1.643-.565-3.435-.7-5.109-1.174a24.171,24.171,0,0,1-4.977-2.049c-1.662-.9-3.967-1.316-5.316-2.72-.594,1.547.147,4.31.225,6.017C258.067,503.892,258.053,504.119,258.054,504.345Z"/></g><path class="e" d="M236.5,617h68.388c-.617-12.8-2.148-48.005-.672-54.647,1.811-8.149.452-27.391-1.359-31.466s-19.468-9.961-19.468-9.961.377,8.678-11.621,8.452a18.121,18.121,0,0,1-16.224-9.961s-3.169,3.018-10.866,4.6-12.9,2.566-15.846,5.735,10.866,56.142,11.771,64.97C241.223,600.731,238.384,611.027,236.5,617Z"/><path class="f" d="M304,563.73c-2-3.535-4.206-6.937-6.543-10.261-3.975-5.654-9.469-13.3-17.347-12.421-3.479.388-6.567,2.415-9.109,4.709a56.558,56.558,0,0,0-7.038,8.092c-4.505,5.958-8.751,12.117-13.559,17.841a67.977,67.977,0,0,1-12,11.591c1.155,5.313,2,9.477,2.2,11.444a32.319,32.319,0,0,1-.559,8.262,100.225,100.225,0,0,0,16.632-18.75c9.206-13.432,13.13-23.242,14.187-24s4.376-7.546,8-9.81,4.83-2.415,4.83-2.415,6.489,8,7.7,10.715,6.489,20.073,9.507,26.713a62.3,62.3,0,0,0,2.973,5.69C303.544,579.8,303.426,568.555,304,563.73Z"/><path class="e" d="M297.881,526.982a38.576,38.576,0,0,1,17.431,16.582c5.949,11.513,17.2,39.39,16.752,45.728s-7.244,7.924-12.9,2.264-17.205-26.939-22.412-37.805-7.47-18.789-7.923-19.469S297.881,526.982,297.881,526.982Z"/><path class="e" d="M248.3,523.416s-16.525,3.4-22.411,7.471-8.829,15.167-12.451,31.24-5.127,31.8,4.754,37.8c9.356,5.687,18.563,2.49,28.75-8.149s22.185-31.92,22.185-31.92l-11.772-8.376s-9.96,10.414-17.2,15.847-3.17-12.225-1.811-17.884S248.3,523.416,248.3,523.416Z"/><path d="M254.4,478.38c2.217-7.464,12.374-16.3,7.037-24.7a21.806,21.806,0,0,0-2.231-2.854c-4.882-1.244-14.583-.893-18.831,3.826-7.149,7.944-8.067,15.046-7.47,24.683.716,11.558-9.758,17.837-14.611,27.11-2.164,4.136-3.764,9.35-3.283,14.075.432,4.25,3.459,6.494,5.041,10.136,1.592,3.666-.565,9.922,1.535,13.659,2.35,4.182,7.536,6.766,11.847,7.621,7.759,1.54,19.461-.413,22.789-8.6.981-2.415,1.549-5.66-.227-11.244-1.148-3.61-1.469-8.615.3-12.073a32.466,32.466,0,0,0,3.15-8.773c.792-3.79-.46-6.974-1.98-10.469C254.423,493.768,252.123,486.064,254.4,478.38Z"/><path class="g" d="M260.631,451.292l1.03.589A4.147,4.147,0,0,0,260.631,451.292Z"/><path class="b" d="M275.7,447.2s9.055.906,12.375,12.074,3.17,27.316-2.414,39.088-17.658,9.961-25.2,5.131c-5.569-3.564-9.658-10.333-11.945-16.652a31.618,31.618,0,0,1-1.486-5.684c-1.057-6.791,3.32-22.487,12.526-28.976S275.7,447.2,275.7,447.2Z"/><path class="b" d="M252,480.82c-.74-.634-1.141-1.561-1.916-2.208a13.623,13.623,0,0,0-3.319-1.9c-.74-.3-2.291-.787-3.031-.288-.765.515-1,1.958-.95,2.79.142,2.547,1.5,4.563,2.651,6.335.785,1.213,2.779,3.421,4.446,3.059,1.75-.38,3.471-3.536,2.8-5.074"/><path d="M263.623,449.315c2.716,12.074-11.761,30.771-13.13,32.75-1.986-1.1-3.9-6.1-4.792-8.084a15.82,15.82,0,0,1-.985-9.729c1.449-6.7,5.562-9.764,11.632-12.333,2.334-.988,4.915-2.662,7.426-3.056"/><path d="M258.866,450.844s4.757,6.47,17.887,12.054,17.506,4.829,17.506,4.829-4.98-20.826-14.639-22.486S258.866,450.844,258.866,450.844Z"/><path class="h" d="M277.668,539.218s.364-30.1,2.108-31.38,18.13-2,19.915,1.076-.314,34.8-1.134,35.732S277.668,539.218,277.668,539.218Z"/><path d="M281.949,512.512a1.311,1.311,0,0,0,.584.746,1.5,1.5,0,0,0,1.042.092,1.83,1.83,0,0,0,1.419-1.472c.09-.761-.671-2.086-1.71-1.939A1.925,1.925,0,0,0,281.949,512.512Z"/><path d="M282.409,515.337a1.232,1.232,0,0,0,.005.9.86.86,0,0,0,.8.492,1.076,1.076,0,0,0,.863-.759.492.492,0,0,0,.045-.243C284.01,514.978,282.711,514.349,282.409,515.337Z"/><path class="b" d="M308.3,559.41c-.951-2.936-2.393-5.563-3.057-8.61-.5-2.294-.62-4.457-1.925-6.507-2.954-4.645-8.051-8.089-12.908-10.286-3.286-1.488-3.745.165-5.985,2.653-1.9,2.111-3.821,4.132-2.831,6.841,1.058,2.894,4.61,5.263,6.906,7.158a43.718,43.718,0,0,1,6.443,5.984c1.279,1.56,3.833,6.7,5.66,7.249,2.287.691,6.679-3.453,7.7-5.161"/><path class="i" d="M290.931,543.255a44.593,44.593,0,0,0,4.355-6.6,39.071,39.071,0,0,0-4.881-2.647c-3.286-1.488-3.745.165-5.985,2.653-1.9,2.111-3.821,4.132-2.831,6.841.676,1.85,2.371,3.482,4.105,4.916A39.11,39.11,0,0,0,290.931,543.255Z"/><path class="e" d="M303.993,560.542a26.178,26.178,0,0,0,5.207-3.622s10.644,12.373,14.186,17.054c4.226,5.584,8.452,15.432,8.565,17.016s-1.924,10.98-14.149,8.942c-8.187-1.365-20.487-37.239-20.487-37.239A24.079,24.079,0,0,0,303.993,560.542Z"/><g class="c"><path class="d" d="M275.431,477.462a42.288,42.288,0,0,0,.361,6.28c.105.951.209,2.133,1.124,2.673a3.282,3.282,0,0,0,1.508.366c.618.034,2.13-.325,2,.715-.11.889-1.124,1.543-1.89,1.789-.673.216-1.646.219-2.172.729a.179.179,0,0,0,.036.278,3.663,3.663,0,0,0,2.449-.233,4.024,4.024,0,0,0,1.857-1.349,1.813,1.813,0,0,0,.267-2.154,1.892,1.892,0,0,0-1.8-.553,3.272,3.272,0,0,1-1.915-.274,2.067,2.067,0,0,1-.651-1.476,68.055,68.055,0,0,1-.648-6.791.265.265,0,0,0-.53,0Z"/></g><path d="M267.661,477.935a1.636,1.636,0,0,0-2.178.242,3.187,3.187,0,0,0-.688,1.323,4.159,4.159,0,0,0-.144,1.846,2.439,2.439,0,0,0,1.53,1.924,1.439,1.439,0,0,0,1.554-.423C268.766,481.648,269.046,479,267.661,477.935Z"/><path d="M284.715,478.01a1.636,1.636,0,0,0-2.178.242,3.173,3.173,0,0,0-.688,1.324,4.144,4.144,0,0,0-.144,1.846,2.436,2.436,0,0,0,1.53,1.923,1.436,1.436,0,0,0,1.553-.423C285.82,481.724,286.1,479.08,284.715,478.01Z"/><path d="M269.03,473.816a3.309,3.309,0,0,0-1.4-1.193,3.9,3.9,0,0,0-1.976-.294,3.836,3.836,0,0,0-2,.765,1.917,1.917,0,0,0-.842,1.7.4.4,0,0,0,.579.235,3.846,3.846,0,0,0,.571-.433,1.308,1.308,0,0,0,.128-.08c.049-.033.1-.058.151-.087.105-.056.208-.115.313-.17.054-.028.107-.057.161-.083.026-.013.213-.087.041-.021.114-.044.23-.083.346-.121s.236-.076.357-.106c.06-.015.121-.029.182-.041.022,0,.258-.042.144-.026s.092-.008.115-.011c.062-.006.125-.013.187-.017a3.917,3.917,0,0,1,.4-.009c.062,0,.124.005.185.01.039,0,.224.025.051,0,.1.014.209.028.313.045-.175-.028.028.008.05.012a3.466,3.466,0,0,1,.348.088c.056.018.111.038.166.058.138.052-.058-.024.066.029.16.067.2.083.108.047l.053.024c.052.026.1.052.155.081a1.045,1.045,0,0,1,.263.195c.388.379,1.11-.125.777-.6Z"/><path d="M282.4,474.663a2.732,2.732,0,0,1,.552-.241,2.494,2.494,0,0,1,.522-.1,3.824,3.824,0,0,1,.6.007c.075.007-.087-.02.03,0l.136.028a2.916,2.916,0,0,1,.294.084c.088.03.174.065.261.1-.13-.052-.008,0,.019.011s.083.041.124.063c.09.049.176.1.262.161.049.033.1.07.023.012l.11.089a5.239,5.239,0,0,1,.455.4,3.585,3.585,0,0,0,.281.254c-.067-.055.066.06.064.059a.826.826,0,0,0,.3.152l-.179-.105a.644.644,0,0,0,.319.194.285.285,0,0,0,.3-.122.932.932,0,0,0,.1-.467,1.21,1.21,0,0,0-.043-.245c.028.128-.022-.123-.036-.167a2.3,2.3,0,0,0-.494-.777,3.055,3.055,0,0,0-1.411-.842,3.406,3.406,0,0,0-3.105.778c-.379.324.106.9.52.674Z"/><path d="M279.36,493.411a.327.327,0,0,0-.04-.024.639.639,0,0,0-.347-.049c-.621.038-1.18.336-1.811.314a11.342,11.342,0,0,1-2.489-.391c-.991-.263-1.908-.72-2.882-1.027-1.6-.5-4.175-1.469-5.7-.307-.853.649-.866,2-.767,2.965a7.69,7.69,0,0,0,1.721,3.958,6.918,6.918,0,0,0,7.39,2.512,7.033,7.033,0,0,0,3.806-3.2,10.836,10.836,0,0,0,1.079-2.377C279.476,495.265,279.932,493.794,279.36,493.411Z"/><path class="h" d="M273.022,494.609a13.805,13.805,0,0,0,4.057.641,4.154,4.154,0,0,0,2.01-.6c.189-.113.367-.237.543-.362a.959.959,0,0,0-.272-.878.327.327,0,0,0-.04-.024.639.639,0,0,0-.347-.049c-.621.038-1.18.336-1.811.314a11.342,11.342,0,0,1-2.489-.391c-.991-.263-1.908-.72-2.882-1.027a18.742,18.742,0,0,0-2.989-.789C269.064,493.213,271.481,494.2,273.022,494.609Z"/><path class="j" d="M272.426,499.064a7.779,7.779,0,0,0-3.152-2.216,5.01,5.01,0,0,0-3.548-.334,8.335,8.335,0,0,0,1.318,2.336,7.03,7.03,0,0,0,6.606,2.686A7.705,7.705,0,0,0,272.426,499.064Z"/><path class="b" d="M294.244,532.227c-1.7-3.307-4.444-3.5-7.8-2.781-5.52,1.18-14.117,4.989-17.757,9.119-2.514,2.852-4.55,6.412-6.74,9.557-1.687,2.423-4.245,5.8-4.939,8.662,1.593,2.061,6.942,4.791,9.128,4.468,2.716-.4,5.919-6.241,8.086-8.262,5.124-4.778,9.994-8.111,15.393-12.451C292.319,538.366,296.006,535.648,294.244,532.227Z"/><g class="c"><path class="b" d="M280.239,534.589c1.193-.488,2.3-1.134,3.524-1.565s2.472-.822,3.712-1.219c.993-.318,1.974-.683,2.98-.955.515-.139,1.036-.259,1.561-.352.276-.049.581-.055.87-.1a4.781,4.781,0,0,0-.443-.361c-.085.017-.169.034-.25.048-.55.094-1.1.22-1.635.362-1.048.277-2.093.554-3.117.91-1.18.41-2.363.812-3.533,1.248-1.292.482-2.479,1.165-3.749,1.693C279.984,534.373,280.06,534.662,280.239,534.589Z"/><path class="b" d="M289.578,532.963c-.8.278-1.567.637-2.345.97a61.13,61.13,0,0,0-5.618,2.527c-.23.129-.028.45.2.347,1.885-.84,3.7-1.81,5.611-2.6a20.7,20.7,0,0,1,2.505-.856c.8-.218,1.584-.489,2.372-.75a9.6,9.6,0,0,0,1.792-.628c-.087-.155-.175-.3-.266-.444a9.087,9.087,0,0,0-1.9.607C291.149,532.411,290.364,532.69,289.578,532.963Z"/><path class="b" d="M294.683,533.791c-.111.037-.222.076-.331.111-.479.155-.96.312-1.427.5-.977.4-1.946.822-2.9,1.272-2.128,1.006-4.124,2.307-6.191,3.43-.28.153-.03.584.25.428a54.716,54.716,0,0,1,6.185-3.279c.977-.391,1.964-.758,2.945-1.138.444-.173.883-.359,1.327-.529l.115-.041A3.582,3.582,0,0,0,294.683,533.791Z"/></g><path class="k" d="M259.029,568.358c1.02,1.03,2.063,2.038,3.1,3.051,4.126-6.449,7-11.546,7-11.546l-11.772-8.376s-2.978,3.112-6.855,6.816A73.013,73.013,0,0,0,259.029,568.358Z"/><path class="f" d="M257.869,552.563c-1.613,1.443-3.515,2.994-5.241,4.4-2.16,1.754-4.293,3.533-6.514,5.21-3.3,2.495-6.692,4.87-10.11,7.2-.045-.372-.113-.73-.148-1.012-.14-1.121-.337-2.233-.368-3.365a65.433,65.433,0,0,1,.027-7.017.267.267,0,0,0-.521-.071,36.161,36.161,0,0,0-.584,6.961,24.747,24.747,0,0,0,.266,3.373c.069.552.131,1.1.152,1.66,0,.088.007.175.011.262q-1.409.956-2.823,1.906a81.061,81.061,0,0,0-7.708,5.452c-.29.249.079.658.388.5a81.059,81.059,0,0,0,7.437-4.517c2.43-1.562,4.859-3.127,7.246-4.755A128.976,128.976,0,0,0,253.15,558.22c.933-.841,4.8-4.724,5.6-5.771C258.936,552.2,258.129,552.329,257.869,552.563Z"/><g class="c"><path class="d" d="M308.618,557.978a46.415,46.415,0,0,1,3.514,5.317c1.146,1.764,2.433,3.433,3.635,5.159,1.126,1.616,2.273,3.216,3.5,4.761,1.16,1.467,2.4,3.206,4.1,4.069.288.146.647-.159.462-.462a47.226,47.226,0,0,0-3.7-4.478c-1.289-1.621-2.481-3.316-3.71-4.982-1.242-1.682-2.567-3.308-3.709-5.061a30.428,30.428,0,0,0-3.68-4.512c-.209-.213-.6-.012-.417.189Z"/></g></g></g></svg>