<svg xmlns="http://www.w3.org/2000/svg" width="175" height="259" viewBox="0 0 175 259"><defs><style>.a{fill:rgba(255,255,255,0.11);stroke:#fff;stroke-width:3px;stroke-dasharray:10 3;}.b{fill:#f2f4ff;stroke:#6915cf;}.c,.d{isolation:isolate;}.d{fill:#fff;font-size:20px;font-family:Raleway-Bold, Raleway;font-weight:700;}.e{stroke:none;}.f{fill:none;}</style></defs><g class="a"><rect class="e" width="175" height="259" rx="29"/><rect class="f" x="1.5" y="1.5" width="172" height="256" rx="27.5"/></g><g transform="translate(23.852 39.638)"><g transform="translate(-0.35 0)"><path class="b" d="M127.242,25.715c0-11.258-8.281-20.315-18.513-20.315-13.86-.65-27.995-.9-42.43-.9H61.8c-14.41,0-28.57.25-42.43.9C9.158,5.4.877,14.507.877,25.765.251,34.672-.024,43.578,0,52.484q-.038,13.36.851,26.744c0,11.258,8.281,20.39,18.488,20.39,14.56.675,29.5.976,44.682.951q22.816.075,44.682-.951c10.232,0,18.513-9.132,18.513-20.39.6-8.931.876-17.838.851-26.769Q128.143,39.1,127.242,25.715ZM51.788,77.027V27.867L88.064,52.434Z" transform="translate(0 -4.5)"/></g><g class="c" transform="translate(20.491 120.26)"><text class="d" transform="translate(43.658 19.101)"><tspan x="-47.83" y="0">Click here</tspan><tspan x="-9.77" y="24">to</tspan><tspan x="-33.18" y="48" xml:space="preserve"> Watch</tspan></text></g></g></svg>