<svg xmlns="http://www.w3.org/2000/svg" xmlns:xlink="http://www.w3.org/1999/xlink" width="206" height="206" viewBox="0 0 206 206"><defs><style>.a{fill:#f2f4ff;}.b{fill:#e6e6e6;}.c{fill:#3f3d56;}.d{fill:#6c63ff;}.e{fill:#2f2e41;}.f{fill:#ccc;}.g{filter:url(#a);}</style><filter id="a" x="0" y="0" width="206" height="206" filterUnits="userSpaceOnUse"><feOffset dy="3" input="SourceAlpha"/><feGaussianBlur stdDeviation="3" result="b"/><feFlood flood-opacity="0.161"/><feComposite operator="in" in2="b"/><feComposite in="SourceGraphic"/></filter></defs><g transform="translate(9 6)"><g class="g" transform="matrix(1, 0, 0, 1, -9, -6)"><rect class="a" width="188" height="188" rx="30" transform="translate(9 6)"/></g><g transform="translate(13 22)"><path class="b" d="M532.29,667.758a8.459,8.459,0,0,0-5.047-3.495,24.588,24.588,0,0,0-5.623-.331l-23.737.183a3.888,3.888,0,0,0,0,7.775l20.86-.161c1.639-.013,3.279-.042,4.919-.037.368,0,.735.021,1.1.025.089,0,.153,0,.2,0l.036.011c.192.053.389.089.582.139-.068,0,.125.122.222.163.013.026.042.073.089.145.066.124.262.5.27.488a17.434,17.434,0,0,1,.726,2.282,12.785,12.785,0,0,1,.616,3.677,3.888,3.888,0,1,0,7.775,0C535.13,674.953,534.487,670.833,532.29,667.758Z" transform="translate(-429.767 -539.393)"/><path class="b" d="M431.168,503.552c-.446-2.7-.883-5.405-1.338-8.105A11.172,11.172,0,0,0,426.3,488.4c-.57-.48-1.16-.929-1.753-1.376-.209-.157-.417-.315-.623-.475l-.031-.024-.086-.074c-.888-.752-1.747-1.537-2.565-2.372q-1.089-1.112-2.083-2.319-.248-.3-.49-.608l-.276-.354c-.092-.126-.259-.354-.287-.394q-.283-.4-.556-.807a37.938,37.938,0,0,1-3.2-5.859q-.133-.3-.26-.612l-.091-.25c-.18-.5-.36-.99-.525-1.491q-.525-1.6-.9-3.24-.187-.812-.336-1.632-.077-.422-.144-.845c-.007-.047-.051-.351-.077-.523s-.054-.479-.059-.526q-.043-.427-.076-.854-.075-.962-.1-1.928-.045-1.716.061-3.431c.04-.643.1-1.283.168-1.923l.011-.1.015-.1c.052-.353.107-.707.169-1.058a38.711,38.711,0,0,1,.909-3.964q.264-.925.574-1.836.138-.4.285-.805c-.006.017.287-.733.291-.758,1.165-2.753,3.071-5.262,3.073-8.389a3.891,3.891,0,1,0-7.775,0c0,.047,0,.088,0,.127l-.051.17c-.227.494-.505.963-.755,1.444-.683,1.318-1.266,2.679-1.819,4.06a38.831,38.831,0,0,0-2.072,6.956,44.245,44.245,0,0,0-.235,15.8,40.78,40.78,0,0,0,13.389,23.894c.6.513,1.214,1.009,1.834,1.495.257.2.515.4.775.594.123.093.632.494.408.3a2.476,2.476,0,0,1,.808.921l.075.294c.087.341.17.682.239,1.028.6,3.025,1.02,6.1,1.522,9.146a3.889,3.889,0,0,0,4.782,2.827A4.186,4.186,0,0,0,431.168,503.552Z" transform="translate(-361.657 -366.414)"/><path class="c" d="M453.663,443.9a6.165,6.165,0,0,1-6.181-6.135v-4.435c-4.643.52-20.542.4-25.1-.333v4.59a6.181,6.181,0,1,1-12.363,0v-9.012a39.653,39.653,0,0,1,16.348-74.13c1.076-.084,2.158-.127,3.217-.127,3.73,0,20.56.576,24.783,1.791L464,346.551a1.011,1.011,0,0,1,1.105-.22,1,1,0,0,1,.628.935v1.519l1.875-1.857a1.009,1.009,0,0,1,1.1-.221,1,1,0,0,1,.629.935v16.975a39.546,39.546,0,0,1-9.493,65.085v8.059A6.165,6.165,0,0,1,453.663,443.9Zm-5.7-11.121v4.986a5.7,5.7,0,1,0,11.391,0V429.4l.139-.066a39.473,39.473,0,0,0,16.165-14.137,38.955,38.955,0,0,0-6.73-50.286l-.081-.072V347.642a.511.511,0,0,0-.326-.485.522.522,0,0,0-.579.115l-2.7,2.678v-2.684a.511.511,0,0,0-.326-.485.523.523,0,0,0-.58.116l-9.835,9.759-.14-.044c-3.925-1.229-21.02-1.811-24.779-1.811-1.046,0-2.116.042-3.178.126a39.379,39.379,0,0,0-21.439,8.442,38.993,38.993,0,0,0,5.414,64.848l.125.069v9.3a5.7,5.7,0,1,0,11.391,0v-5.172l.288.054c4.1.771,21.341.892,25.509.345Z" transform="translate(-350.747 -298.912)"/><path class="d" d="M426.339,270.318,399.432,278.4a3.373,3.373,0,1,0,1.941,6.461l23.546-7.078.493-.148a16.4,16.4,0,0,1,2.014-7.255,1.5,1.5,0,0,0-.486-.126A1.547,1.547,0,0,0,426.339,270.318Z" transform="translate(-356.363 -241.376)"/><path class="e" d="M402.457,288.461a1.7,1.7,0,0,1-1.613-1.167l-1.683-5.077a1.7,1.7,0,0,1,1.08-2.149l21.9-7.258a1.7,1.7,0,0,1,2.149,1.079l1.683,5.077a1.7,1.7,0,0,1-1.019,2.128l-.061.021-21.9,7.257A1.7,1.7,0,0,1,402.457,288.461Z" transform="translate(-357.912 -243.248)"/><path class="c" d="M528.8,233.42a17.016,17.016,0,0,0-17,16.486c0,.173-.007.347-.007.522A17.008,17.008,0,1,0,528.8,233.42Zm0,33.53a16.54,16.54,0,0,1-16.522-16.522q0-.339.015-.671A16.522,16.522,0,1,1,528.8,266.95Z" transform="translate(-443.24 -213.494)"/><path class="b" d="M551.461,258.755a14.335,14.335,0,0,1-28.671,0q0-.682.063-1.344a14.335,14.335,0,0,1,28.608,1.344Z" transform="translate(-451.568 -221.821)"/><path class="d" d="M571.07,277.93a3.413,3.413,0,0,0-1.329-1.052,12.916,12.916,0,0,0-2-.656v-3.9a5.684,5.684,0,0,1,2.84,1.3l.792-1.689a5.239,5.239,0,0,0-1.545-.955,7.6,7.6,0,0,0-1.961-.5V268.49h-1.834v2a5.022,5.022,0,0,0-2,.673,3.984,3.984,0,0,0-1.358,1.332,3.347,3.347,0,0,0-.483,1.771,3.027,3.027,0,0,0,.556,1.9,3.525,3.525,0,0,0,1.385,1.1,12.812,12.812,0,0,0,2.031.673v3.739a6.071,6.071,0,0,1-3.38-1.348l-.792,1.691a5.973,5.973,0,0,0,1.808,1.025,8.3,8.3,0,0,0,2.238.467v1.961h1.834v-2a4.747,4.747,0,0,0,2.724-1.249,3.3,3.3,0,0,0,1.016-2.454A2.929,2.929,0,0,0,571.07,277.93Zm-4.908-2.121a3.523,3.523,0,0,1-1.222-.656,1.293,1.293,0,0,1-.432-1.016,1.634,1.634,0,0,1,.442-1.169,2.236,2.236,0,0,1,1.212-.629Zm2.733,5.171a2.079,2.079,0,0,1-1.152.6v-3.217a3.217,3.217,0,0,1,1.152.576,1.131,1.131,0,0,1,.4.9,1.653,1.653,0,0,1-.4,1.142Z" transform="translate(-481.243 -240.043)"/><path class="e" d="M408.05,376.993a1.707,1.707,0,0,1-1.646-1.267l-.916-3.467a1.7,1.7,0,0,1,1.209-2.078l28.9-7.637a1.7,1.7,0,0,1,2.078,1.211l.776,2.938-.145.011a38.915,38.915,0,0,0-20.436,7.744l-.042.02-9.345,2.469A1.691,1.691,0,0,1,408.05,376.993Z" transform="translate(-362.724 -311.202)"/><path class="c" d="M340.867,429.418a23.839,23.839,0,0,1-9.506-3.594,23.214,23.214,0,0,1-3.93-3.214,12.057,12.057,0,0,1-2.876-4.15,6.147,6.147,0,0,1,.081-4.56,5.912,5.912,0,0,1,3.2-3.189,6.1,6.1,0,0,1,4.63-.007,4.152,4.152,0,0,1,1.692,1.362,2.779,2.779,0,0,1,.44.913,1.865,1.865,0,0,1,.022.913,2.191,2.191,0,0,1-1.16,1.39,5.846,5.846,0,0,1-1.981.6,2.733,2.733,0,0,1-2.252-.377,1.134,1.134,0,0,1-.265-.391.757.757,0,0,1-.042-.354c-.008.053.034-.115.031-.108-.009.025-.047.085.007-.008a.822.822,0,0,1,.057-.088c-.018.024-.059.064.013,0a.477.477,0,0,1,.222-.137l.1-.027c.086-.023-.085,0,0,0l.1,0c.086,0-.085-.023,0,0,.032.008.064.016.1.026.069.022-.049-.05,0,0s-.057-.061,0,0a1.129,1.129,0,0,1,.087.1.573.573,0,0,0,.805,0,.583.583,0,0,0,0-.805,1.543,1.543,0,0,0-2.239.064,1.852,1.852,0,0,0,.267,2.595,3.586,3.586,0,0,0,2.954.668,7.245,7.245,0,0,0,2.5-.705,3.5,3.5,0,0,0,1.707-1.844,3.2,3.2,0,0,0-.257-2.617,5.646,5.646,0,0,0-4.637-2.728,7.244,7.244,0,0,0-5.3,1.74,7.327,7.327,0,0,0-2.4,4.878,8.354,8.354,0,0,0,1.691,5.4,20.564,20.564,0,0,0,4.077,4.216,24.9,24.9,0,0,0,10.4,4.906q.678.14,1.364.24a.588.588,0,0,0,.7-.4.574.574,0,0,0-.4-.7Z" transform="translate(-300.328 -346.501)"/><path class="f" d="M563.812,390.735q-7.45-.105-14.854.378c-1.687.11-3.147.706-3.147,1.709,0,.838,1.448,1.82,3.147,1.709q7.4-.483,14.854-.378C567.863,394.21,567.861,390.793,563.812,390.735Z" transform="translate(-468.995 -332.572)"/><path class="c" d="M548.723,393.184c-.537,0-13.146-.02-13.146-1.762s12.609-1.762,13.146-1.762,13.146.02,13.146,1.762S549.259,393.184,548.723,393.184Zm-12.653-1.762c.345.528,4.98,1.276,12.653,1.276s12.308-.748,12.653-1.276c-.345-.528-4.98-1.276-12.653-1.276s-12.308.748-12.653,1.276Z" transform="translate(-461.247 -331.772)"/><path class="c" d="M754.189,503.045c2.791-.078,6.265-.174,8.942-2.129a6.867,6.867,0,0,0,2.7-5.128,4.619,4.619,0,0,0-1.571-3.794,5.961,5.961,0,0,0-5.639-.812l2.279-16.655-1.673-.229-2.679,19.581,1.4-.641c1.62-.743,3.843-1.121,5.225.047a2.969,2.969,0,0,1,.973,2.445,5.19,5.19,0,0,1-2.011,3.823c-2.083,1.521-4.852,1.718-7.992,1.805Z" transform="translate(-626.707 -395.845)"/><rect class="c" width="9.095" height="1.689" transform="translate(113.761 80.118)"/><path class="e" d="M426.128,418.1a1.7,1.7,0,0,1-1.677-1.438l-.555-3.543a1.7,1.7,0,0,1,1.417-1.944l29.529-4.627a1.7,1.7,0,0,1,1.944,1.417l.555,3.543a1.7,1.7,0,0,1-1.417,1.944l-29.529,4.627A1.723,1.723,0,0,1,426.128,418.1Z" transform="translate(-376.686 -344.539)"/><circle class="d" cx="12.392" cy="12.392" r="12.392" transform="translate(24.829 7.254)"/><path class="e" d="M407.124,220.343a2.939,2.939,0,0,0,1.061-.65,1.976,1.976,0,0,0,.548-1.575,1.33,1.33,0,0,0-.61-1.012,1.719,1.719,0,0,0-1.639.012l-.069-4.837-.486.007.081,5.687.37-.243a1.472,1.472,0,0,1,1.489-.212.854.854,0,0,1,.382.653,1.493,1.493,0,0,1-.407,1.174,4.017,4.017,0,0,1-2.2.858l.086.478A8.01,8.01,0,0,0,407.124,220.343Z" transform="translate(-362.887 -197.492)"/><rect class="e" width="2.617" height="0.486" transform="matrix(0.989, -0.15, 0.15, 0.989, 45.944, 14.842)"/><rect class="e" width="2.617" height="0.486" transform="matrix(0.989, -0.15, 0.15, 0.989, 37.776, 16.078)"/><path class="e" d="M381.329,323.75a2.194,2.194,0,0,1-2.049-1.423l-8.544-22.881a11.306,11.306,0,0,1,6.629-14.53l6.947-2.594a2.177,2.177,0,0,1,1.671.058,2.146,2.146,0,0,1,1.136,1.211l15.826,29.882a2.187,2.187,0,0,1-1.277,2.828l-19.576,7.31A2.18,2.18,0,0,1,381.329,323.75Z" transform="translate(-335.919 -250.409)"/><path class="b" d="M420.158,282.646l15.7,21-10.625-20.779a1.963,1.963,0,0,0-2.515-1.177Z" transform="translate(-373.873 -249.946)"/><path class="d" d="M425.3,325.01,397.263,323.2a3.372,3.372,0,1,1,.434-6.731l28.038,1.806a1.579,1.579,0,0,1,1.475,1.678l-.23,3.579A1.579,1.579,0,0,1,425.3,325.01Z" transform="translate(-354.151 -276.363)"/><path class="e" d="M414.616,322.131q-.056,0-.111,0h0l-23.023-1.483a1.7,1.7,0,0,1-1.588-1.807l.394-6.113a1.7,1.7,0,0,1,1.807-1.588l23.023,1.483a1.7,1.7,0,0,1,1.588,1.807l-.394,6.113a1.705,1.705,0,0,1-1.1,1.485,1.684,1.684,0,0,1-.591.107Z" transform="translate(-350.959 -272.326)"/><path class="e" d="M337.39,162.818c1.63-1.4,3.869-.148,5.738-.367a4.431,4.431,0,0,0,3.562-3.519,5.484,5.484,0,0,0-2.132-5.22,7.9,7.9,0,0,0-5.97-1.5,14.928,14.928,0,0,0-6.564,2.76,29.6,29.6,0,0,0-5.21,4.415,11.39,11.39,0,0,0-2.959,5.46,7.49,7.49,0,0,0,1.034,5.577,5.881,5.881,0,0,0,2.3,1.9c.957.47,1.977.806,2.9,1.337,1.4.8,2.763,2.468,2.324,4.2a2.379,2.379,0,0,1-.541,1.018c-.314.348-.879-.112-.565-.461a2.006,2.006,0,0,0,.236-2.163,3.953,3.953,0,0,0-1.758-1.933c-.97-.555-2.041-.9-3.036-1.4a6.566,6.566,0,0,1-2.408-2,8.121,8.121,0,0,1-1.276-5.8,11.485,11.485,0,0,1,2.787-5.754,28.691,28.691,0,0,1,5.261-4.655,16.938,16.938,0,0,1,6.767-3.134,9.074,9.074,0,0,1,6.376,1.026,6.7,6.7,0,0,1,3.242,5.09,5.4,5.4,0,0,1-2.521,4.845,4.641,4.641,0,0,1-2.772.642,21.171,21.171,0,0,0-3.114-.3,2.172,2.172,0,0,0-1.28.517c-.356.306-.781-.287-.427-.591Z" transform="translate(-300.311 -151.412)"/></g></g></svg>