<svg xmlns="http://www.w3.org/2000/svg" width="148.589" height="37.973" viewBox="0 0 148.589 37.973"><defs><style>.a{fill:#139ad6;}.b{fill:#263b80;}.c{fill:#232c65;}</style></defs><path class="a" d="M480.96,1028.634h-8.018a1.568,1.568,0,0,0-1.18.945l-3.3,20.755a.625.625,0,0,0,.708.706h4.246a.625.625,0,0,0,.708-.706l.942-5.9a1.078,1.078,0,0,1,1.179-.944h2.6q8.138,0,9.2-7.784a6.186,6.186,0,0,0-.942-5.189,9.517,9.517,0,0,0-6.133-1.887m.944,7.783c-.473,2.831-2.595,2.831-4.717,2.831h-1.415l.942-5.423c0-.237.237-.473.708-.473h.471c1.416,0,2.832,0,3.538.944.473.235.473.942.473,2.121" transform="translate(-366.1 -1018.729)"/><path class="b" d="M428.578,1028.634h-8.019a1.568,1.568,0,0,0-1.179.945l-3.3,20.755a.625.625,0,0,0,.708.706h3.774a1.565,1.565,0,0,0,1.179-.943l.943-5.659a1.078,1.078,0,0,1,1.179-.944h2.595q8.138,0,9.2-7.784a6.19,6.19,0,0,0-.942-5.189,9.073,9.073,0,0,0-6.133-1.887m.944,7.783c-.473,2.831-2.595,2.831-4.717,2.831h-1.179l.943-5.423c0-.237.236-.473.707-.473h.472c1.415,0,2.829,0,3.538.944a2.524,2.524,0,0,1,.236,2.121" transform="translate(-371.5 -1018.729)"/><path class="b" d="M451.142,1035.522h-3.774c-.235,0-.706.234-.706.471l-.237,1.179-.236-.471a5.547,5.547,0,0,0-4.481-1.652,9.062,9.062,0,0,0-8.726,7.784,7.027,7.027,0,0,0,1.413,5.9c1.179,1.415,2.832,1.886,4.954,1.886a7.543,7.543,0,0,0,5.425-2.121l-.237,1.179a.625.625,0,0,0,.708.706h3.538a1.567,1.567,0,0,0,1.179-.943l2.122-13.208c-.235-.235-.706-.706-.943-.706m-5.425,7.546a4.559,4.559,0,0,1-4.48,3.773,3.772,3.772,0,0,1-2.6-.943,5.032,5.032,0,0,1-.708-2.83,4.206,4.206,0,0,1,6.842-2.829,4.107,4.107,0,0,1,.942,2.829" transform="translate(-369.773 -1018.068)"/><path class="a" d="M503.31,1035.522h-3.773c-.236,0-.708.234-.708.471l-.236,1.179-.235-.471a5.551,5.551,0,0,0-4.482-1.652,9.066,9.066,0,0,0-8.727,7.784,7.031,7.031,0,0,0,1.416,5.9c1.179,1.415,2.829,1.886,4.952,1.886a7.543,7.543,0,0,0,5.425-2.121l-.235,1.179a.624.624,0,0,0,.706.706h3.538a1.562,1.562,0,0,0,1.179-.943l2.124-13.208c-.236-.235-.471-.706-.944-.706m-5.423,7.546a4.564,4.564,0,0,1-4.483,3.773,3.762,3.762,0,0,1-2.592-.943,5.014,5.014,0,0,1-.708-2.83,4.2,4.2,0,0,1,6.839-2.829,2.7,2.7,0,0,1,.944,2.829" transform="translate(-364.393 -1018.068)"/><path class="b" d="M469.73,1035.478h-4.009a1.218,1.218,0,0,0-.943.471l-5.19,8.019-2.359-7.547a1.09,1.09,0,0,0-1.179-.708h-3.773c-.471,0-.708.472-.708.945l4.246,12.5-4.009,5.661c-.237.472,0,1.179.471,1.179h3.773a1.227,1.227,0,0,0,.944-.471l12.972-18.634c.708-.707.235-1.413-.236-1.413" transform="translate(-367.84 -1018.023)"/><path class="a" d="M505.971,1029.329l-3.3,21.227a.626.626,0,0,0,.708.707h3.3a1.568,1.568,0,0,0,1.179-.942l3.3-20.755a.626.626,0,0,0-.708-.708h-3.773c-.236-.237-.473,0-.708.471" transform="translate(-362.57 -1018.716)"/><path class="b" d="M402.792,1022.484c-1.65-1.885-4.717-2.829-8.963-2.829H382.036a2.022,2.022,0,0,0-1.65,1.417l-4.718,30.9a1.079,1.079,0,0,0,.943,1.179h7.313l1.886-11.556v.471a2.02,2.02,0,0,1,1.651-1.413H391c6.838,0,12.03-2.832,13.68-10.614v-.707h0c.235-3.067-.237-4.954-1.887-6.842" transform="translate(-375.668 -1019.655)"/><path class="a" d="M403.736,1028.422v.707c-1.65,8.019-6.838,10.614-13.68,10.614h-3.538a2.023,2.023,0,0,0-1.65,1.413l-2.358,14.388a.864.864,0,0,0,.944.943h6.131a1.321,1.321,0,0,0,1.416-1.179v-.235l1.179-7.313v-.471a1.319,1.319,0,0,1,1.413-1.179h.945c5.9,0,10.613-2.359,11.792-9.434.471-2.83.235-5.425-1.179-7.075a2.412,2.412,0,0,0-1.416-1.179" transform="translate(-374.963 -1018.751)"/><path class="c" d="M401.843,1027.846c-.236,0-.471-.237-.708-.237a.876.876,0,0,1-.708-.234,12.367,12.367,0,0,0-3.064-.237h-9.2a.866.866,0,0,0-.708.237,1.294,1.294,0,0,0-.706,1.179l-1.887,12.263v.471a2.02,2.02,0,0,1,1.651-1.413h3.538c6.838,0,12.03-2.832,13.68-10.614a.865.865,0,0,1,.235-.707c-.472-.237-.706-.472-1.179-.472-.706-.236-.706-.236-.943-.236" transform="translate(-374.719 -1018.884)"/></svg>