<svg xmlns="http://www.w3.org/2000/svg" width="138.617" height="26.353" viewBox="0 0 138.617 26.353"><defs><style>.a{fill:#008cff;}</style></defs><path class="a" d="M649.113,1024.922a9.418,9.418,0,0,1,1.358,5.148c0,6.414-5.476,14.744-9.92,20.594H630.4l-4.072-24.338,8.889-.844,2.152,17.319c2.011-3.276,4.493-8.424,4.493-11.934a9.6,9.6,0,0,0-.844-4.308Z" transform="translate(-626.328 -1024.922)"/><path class="a" d="M658.257,1035.632c1.636,0,5.753-.748,5.753-3.088a1.605,1.605,0,0,0-1.731-1.685C660.641,1030.86,658.491,1032.825,658.257,1035.632Zm-.188,4.634c0,2.857,1.589,3.978,3.7,3.978a15.563,15.563,0,0,0,7.346-2.011l-1.076,7.3a20.047,20.047,0,0,1-8.188,1.638c-7.719,0-10.481-4.679-10.481-10.53,0-7.583,4.493-15.635,13.757-15.635,5.1,0,7.952,2.857,7.952,6.835C671.075,1038.255,662.843,1040.22,658.07,1040.266Z" transform="translate(-623.953 -1024.913)"/><path class="a" d="M694.635,1030.54a23.491,23.491,0,0,1-.284,3.182l-2.667,16.85h-8.655l2.433-15.447c.046-.418.188-1.262.188-1.73,0-1.124-.7-1.4-1.545-1.4a7.025,7.025,0,0,0-2.994.89l-2.76,17.691h-8.7l3.976-25.228h7.533l.095,2.014a12.984,12.984,0,0,1,7.437-2.436C693.088,1024.922,694.635,1027.169,694.635,1030.54Z" transform="translate(-621.861 -1024.922)"/><path class="a" d="M717.857,1027.769a12.9,12.9,0,0,1,8.046-2.762c4.443,0,5.99,2.248,5.99,5.619a23.663,23.663,0,0,1-.282,3.18l-2.664,16.851h-8.657l2.479-15.773c.046-.422.142-.936.142-1.262,0-1.265-.7-1.545-1.547-1.545a6.619,6.619,0,0,0-2.948.889l-2.759,17.692H707l2.48-15.773c.045-.422.139-.936.139-1.262,0-1.265-.7-1.545-1.544-1.545a7.024,7.024,0,0,0-2.994.89l-2.761,17.691h-8.7l3.977-25.229h7.441l.234,2.106a11.957,11.957,0,0,1,7.2-2.527A5.786,5.786,0,0,1,717.857,1027.769Z" transform="translate(-619.389 -1024.913)"/><path class="a" d="M745.326,1035.117c0-2.06-.515-3.463-2.057-3.463-3.416,0-4.118,6.036-4.118,9.125,0,2.343.656,3.794,2.2,3.794C744.577,1044.573,745.326,1038.206,745.326,1035.117Zm-14.97,5.29c0-7.956,4.209-15.4,13.9-15.4,7.3,0,9.967,4.307,9.967,10.251,0,7.864-4.165,16.008-14.085,16.008C732.788,1051.266,730.356,1046.444,730.356,1040.407Z" transform="translate(-615.602 -1024.913)"/></svg>