<svg xmlns="http://www.w3.org/2000/svg" width="27.817" height="29.2" viewBox="0 0 27.817 29.2"><defs><style>.a{fill:#380E7F;}</style></defs><path class="a" d="M985.148,1989.393H957.331l.119-.955c.127-1.021.856-6.173,2.708-7.408,1.73-1.152,6.137-1.857,6.633-1.933l.443-.069.308.327c1.457,1.558,3.186,2.944,3.7,2.968.509-.024,2.233-1.41,3.687-2.967l.3-.328.445.069c.5.076,4.908.778,6.637,1.933,2.182,1.454,2.7,6.832,2.755,7.441Zm-25.872-1.7h23.995c-.288-2.061-.97-4.629-1.9-5.249-1.081-.722-4.028-1.34-5.516-1.6-1.121,1.163-3.259,3.174-4.616,3.174s-3.5-2.011-4.623-3.173c-1.487.256-4.432.876-5.513,1.595C960.4,1982.913,959.662,1985.363,959.276,1987.693Zm12.061-8.493c-4.1,0-7.439-4.262-7.439-9.5s3.335-9.5,7.436-9.5h0c4.1,0,7.435,4.264,7.435,9.5S975.437,1979.2,971.337,1979.2Zm0-17.307c-3.163,0-5.736,3.5-5.736,7.8s2.575,7.8,5.739,7.8,5.736-3.5,5.736-7.8-2.573-7.8-5.736-7.8Z" transform="translate(-957.331 -1960.193)"/></svg>