<svg xmlns="http://www.w3.org/2000/svg" width="32" height="32" viewBox="0 0 32 32"><defs><style>.a{fill:#fff;stroke:#6915cf;stroke-width:2px;}.b{fill:#6915cf;}.c{stroke:none;}.d{fill:none;}</style></defs><g class="a"><circle class="c" cx="16" cy="16" r="16"/><circle class="d" cx="16" cy="16" r="15"/></g><path class="b" d="M6.54,7.3,3.165,6.308A.922.922,0,0,1,3.424,4.5H5.5a1.908,1.908,0,0,1,1.069.328.487.487,0,0,0,.61-.063L8.263,3.7a.507.507,0,0,0-.056-.766A4.42,4.42,0,0,0,5.5,2V.5A.5.5,0,0,0,5,0H4a.5.5,0,0,0-.5.5V2H3.424A3.425,3.425,0,0,0,.017,5.739,3.578,3.578,0,0,0,2.636,8.758l3.2.938A.922.922,0,0,1,5.581,11.5H3.508a1.908,1.908,0,0,1-1.069-.328.487.487,0,0,0-.61.063L.742,12.3a.507.507,0,0,0,.056.766A4.42,4.42,0,0,0,3.5,14v1.5A.5.5,0,0,0,4,16H5a.5.5,0,0,0,.5-.5V14a3.531,3.531,0,0,0,3.3-2.272A3.432,3.432,0,0,0,6.54,7.3Z" transform="translate(11.521 8)"/></svg>