<svg xmlns="http://www.w3.org/2000/svg" width="40.087" height="42.168" viewBox="0 0 40.087 42.168"><defs><style>.a{fill:#FBB03B;}</style></defs><g transform="translate(-293.579 -1957.004)"><path class="a" d="M294.489,1983.347a.88.88,0,1,1-.058-1.759h12.612a.88.88,0,0,1,0,1.759Z"/><path class="a" d="M294.489,1988a.881.881,0,0,1-.88-.88v-8.986a6.7,6.7,0,0,1,5.675-6.6,6.361,6.361,0,1,1,7.8,1.587.879.879,0,1,1-.86-1.533c.019-.011.039-.021.06-.031a4.6,4.6,0,1,0-4.208,0,.879.879,0,0,1-.4,1.661H300.3a4.926,4.926,0,0,0-4.921,4.92v8.108h9.574a.879.879,0,0,1,0,1.758Z"/><path class="a" d="M307.1,1985.927a.879.879,0,0,1,0-1.758h25.688a.879.879,0,0,1,0,1.758Z"/><path class="a" d="M307.1,1999.172a7.956,7.956,0,0,1-6.883-3.971h-3.7a.88.88,0,0,1-.623-1.5l4.275-4.274a.879.879,0,0,1,1.243,0l4.273,4.274a.879.879,0,0,1-.621,1.5h-2.709a6.2,6.2,0,0,0,10.883-3.107H307.1a.881.881,0,0,1-.879-.879V1979.3a8.6,8.6,0,0,1,7.817-8.537,8.147,8.147,0,1,1,11.811,0,8.6,8.6,0,0,1,7.818,8.537v11.915a.88.88,0,0,1-.879.879H315A7.994,7.994,0,0,1,307.1,1999.172Zm-4.164-5.73-2.15-2.15-2.15,2.15Zm28.972-3.107V1979.3a6.818,6.818,0,0,0-6.81-6.81h-1.831a.88.88,0,0,1-.4-1.662,6.387,6.387,0,1,0-5.841,0,.88.88,0,0,1-.4,1.662h-1.832a6.818,6.818,0,0,0-6.809,6.81v11.035Z"/></g></svg>