<svg xmlns="http://www.w3.org/2000/svg" width="40.754" height="40.754" viewBox="0 0 40.754 40.754"><defs><style>.a{fill:#FBB03B;}</style></defs><g transform="translate(-76.474 -1934.702)"><path class="a" d="M107.032,1981.018H99.35a.8.8,0,0,1,0-1.592h7.682a.8.8,0,1,1,0,1.592Zm0,0" transform="translate(-6.308 -12.776)"/><path class="a" d="M108.459,1985.451H96.021a.8.8,0,0,1,0-1.592h12.438a.8.8,0,0,1,0,1.592Zm0,0" transform="translate(-5.357 -14.043)"/><path class="a" d="M104.727,1941.33a.8.8,0,0,1-.8-.8v-.8a.8.8,0,1,1,1.592,0v.8a.8.8,0,0,1-.8.8Zm0,0" transform="translate(-7.844 -1.21)"/><path class="a" d="M104.727,1968.056a.8.8,0,0,1-.8-.8v-.8a.8.8,0,0,1,1.592,0v.8a.8.8,0,0,1-.8.8Zm0,0" transform="translate(-7.844 -8.844)"/><path class="a" d="M113.779,1944.861a.8.8,0,0,1-.563-1.359l1.349-1.349a.8.8,0,0,1,1.126,1.126l-1.349,1.349a.793.793,0,0,1-.563.233Zm0,0" transform="translate(-10.429 -2.062)"/><path class="a" d="M93.787,1964.853a.8.8,0,0,1-.563-1.359l1.349-1.349a.8.8,0,0,1,1.126,1.125l-1.349,1.349a.8.8,0,0,1-.563.233Zm0,0" transform="translate(-4.718 -7.773)"/><path class="a" d="M118.33,1954.453h-.8a.8.8,0,0,1,0-1.592h.8a.8.8,0,1,1,0,1.592Zm0,0" transform="translate(-11.5 -5.187)"/><path class="a" d="M91.6,1954.453h-.8a.8.8,0,0,1,0-1.592h.8a.8.8,0,1,1,0,1.592Zm0,0" transform="translate(-3.866 -5.187)"/><path class="a" d="M95.135,1944.861a.79.79,0,0,1-.562-.233l-1.349-1.349a.8.8,0,1,1,1.126-1.126L95.7,1943.5a.8.8,0,0,1-.564,1.359Zm0,0" transform="translate(-4.718 -2.062)"/><path class="a" d="M115.127,1964.853a.8.8,0,0,1-.563-.233l-1.349-1.349a.8.8,0,0,1,1.126-1.125l1.349,1.349a.8.8,0,0,1-.563,1.359Zm0,0" transform="translate(-10.429 -7.773)"/><path class="a" d="M99.7,1957.469a1.332,1.332,0,0,1-1.323-1.493l.314-2.579-1.772-1.9a1.332,1.332,0,0,1,.72-2.215l2.554-.5,1.264-2.272a1.333,1.333,0,0,1,2.329,0l1.265,2.272,2.555.5a1.332,1.332,0,0,1,.72,2.215l-1.773,1.9.314,2.579a1.333,1.333,0,0,1-1.885,1.369l-2.361-1.1-2.361,1.1a1.326,1.326,0,0,1-.561.124Zm2.922-2.893a.794.794,0,0,1,.335.074l2.274,1.055-.3-2.485a.8.8,0,0,1,.208-.638l1.706-1.832-2.459-.48a.793.793,0,0,1-.543-.394l-1.219-2.188-1.218,2.188a.8.8,0,0,1-.544.394l-2.458.48,1.705,1.832a.8.8,0,0,1,.208.638l-.3,2.485,2.274-1.055a.8.8,0,0,1,.335-.074Zm0,0" transform="translate(-5.738 -3.177)"/><g transform="translate(76.474 1934.702)"><path class="a" d="M113.706,1945.7H113.5v-8.232a2.767,2.767,0,0,0-2.764-2.764H82.967a2.767,2.767,0,0,0-2.764,2.764v8.232H80a3.525,3.525,0,0,0-3.522,3.522v22.715A3.526,3.526,0,0,0,80,1975.456h33.711a3.526,3.526,0,0,0,3.522-3.522v-7.759a.8.8,0,0,0-1.592,0v5.113l-10.1-9.181,10.1-8.348v5.22a.8.8,0,1,0,1.592,0v-7.759a3.525,3.525,0,0,0-3.522-3.522ZM81.8,1937.466a1.173,1.173,0,0,1,1.172-1.172h27.767a1.173,1.173,0,0,1,1.172,1.172v15.308l-13.089,10.815H94.884L81.8,1952.774Zm-3.729,14.292,10.1,8.348-10.1,9.181Zm0-2.539A1.931,1.931,0,0,1,80,1947.29H80.2v4.169l-2.137-1.766Zm37.57,22.219v.5a1.932,1.932,0,0,1-1.929,1.93H80a1.932,1.932,0,0,1-1.929-1.93v-.5l11.344-10.308L94.09,1965a.8.8,0,0,0,.507.183H99.1a.8.8,0,0,0,.507-.183l4.68-3.867ZM113.5,1947.29h.207a1.931,1.931,0,0,1,1.929,1.929v.473l-2.137,1.766Zm0,0" transform="translate(-76.474 -1934.702)"/><path class="a" d="M132.094,1971.383a.8.8,0,1,1,.78-.641.8.8,0,0,1-.78.641Zm0,0" transform="translate(-92.136 -1944.726)"/></g></g></svg>