<svg xmlns="http://www.w3.org/2000/svg" width="38.349" height="48" viewBox="0 0 38.349 48"><defs><style>.a,.d{fill:#fff;}.b{fill:red;}.c,.d{stroke:none;}</style></defs><g transform="translate(-1555.147 -31)"><g transform="translate(1555.148 31)"><path class="a" d="M24.373,28.336a1.554,1.554,0,0,0-1.524,1.224,3.007,3.007,0,0,1-.6,1.308,2.268,2.268,0,0,1-1.932.708,2.305,2.305,0,0,1-1.932-.708,3.006,3.006,0,0,1-.6-1.308,1.554,1.554,0,0,0-1.524-1.224h0a1.564,1.564,0,0,0-1.524,1.908,5.36,5.36,0,0,0,5.579,4.451A5.35,5.35,0,0,0,25.9,30.243a1.57,1.57,0,0,0-1.524-1.908Z" transform="translate(-1.177 13.306)"/><path class="a" d="M44.643,39.478C42.8,37.042,39.16,35.615,39.16,24.709c0-11.193-4.943-15.692-9.55-16.772-.432-.108-.744-.252-.744-.708V6.882A2.942,2.942,0,0,0,25.988,3.93h-.072a2.942,2.942,0,0,0-2.879,2.951V7.23c0,.444-.312.6-.744.708-4.619,1.092-9.55,5.579-9.55,16.772,0,10.905-3.635,12.321-5.483,14.768a2.381,2.381,0,0,0,1.908,3.815h33.6A2.383,2.383,0,0,0,44.643,39.478Zm-4.679.7H11.987a.526.526,0,0,1-.4-.876,14.534,14.534,0,0,0,2.519-4.007,27.187,27.187,0,0,0,1.716-10.581c0-4.475.84-7.978,2.507-10.413a7.7,7.7,0,0,1,4.643-3.311,4.2,4.2,0,0,0,2.231-1.26A.949.949,0,0,1,26.635,9.7a4.346,4.346,0,0,0,2.255,1.284A7.7,7.7,0,0,1,33.534,14.3c1.668,2.435,2.507,5.939,2.507,10.413a27.187,27.187,0,0,0,1.716,10.581,14.7,14.7,0,0,0,2.579,4.067A.5.5,0,0,1,39.964,40.173Z" transform="translate(-6.775 -3.93)"/></g><g class="b" transform="translate(1580.371 31)"><path class="c" d="M 6.384472846984863 12.01894283294678 C 3.277612924575806 12.01894283294678 0.7500028610229492 9.4913330078125 0.7500028610229492 6.384472846984863 C 0.7500028610229492 3.277612924575806 3.277612924575806 0.7500028610229492 6.384472846984863 0.7500028610229492 C 9.4913330078125 0.7500028610229492 12.01894283294678 3.277612924575806 12.01894283294678 6.384472846984863 C 12.01894283294678 9.4913330078125 9.4913330078125 12.01894283294678 6.384472846984863 12.01894283294678 Z"/><path class="d" d="M 6.384472846984863 1.500002861022949 C 3.691163063049316 1.500002861022949 1.500002861022949 3.691163063049316 1.500002861022949 6.384472846984863 C 1.500002861022949 9.07778263092041 3.691163063049316 11.26894283294678 6.384472846984863 11.26894283294678 C 9.07778263092041 11.26894283294678 11.26894283294678 9.07778263092041 11.26894283294678 6.384472846984863 C 11.26894283294678 3.691163063049316 9.07778263092041 1.500002861022949 6.384472846984863 1.500002861022949 M 6.384472846984863 2.86102294921875e-06 C 9.9105224609375 2.86102294921875e-06 12.76894283294678 2.858423233032227 12.76894283294678 6.384472846984863 C 12.76894283294678 9.9105224609375 9.9105224609375 12.76894283294678 6.384472846984863 12.76894283294678 C 2.858423233032227 12.76894283294678 2.86102294921875e-06 9.9105224609375 2.86102294921875e-06 6.384472846984863 C 2.86102294921875e-06 2.858423233032227 2.858423233032227 2.86102294921875e-06 6.384472846984863 2.86102294921875e-06 Z"/></g></g></svg>