<svg xmlns="http://www.w3.org/2000/svg" xmlns:xlink="http://www.w3.org/1999/xlink" width="174" height="174" viewBox="0 0 174 174"><defs><style>.a,.c{fill:none;}.a{stroke:#fff;stroke-width:3px;}.b{stroke:none;}.d{filter:url(#a);}</style><filter id="a" x="0" y="0" width="174" height="174" filterUnits="userSpaceOnUse"><feOffset dy="3" input="SourceAlpha"/><feGaussianBlur stdDeviation="3" result="b"/><feFlood flood-opacity="0.161"/><feComposite operator="in" in2="b"/><feComposite in="SourceGraphic"/></filter></defs><g transform="translate(-453 -184)"><path class="a" d="M37.177,44.428C25.7,41.446,22.014,38.363,22.014,33.562c0-5.509,5.1-9.35,13.646-9.35,9,0,12.332,4.3,12.635,10.614h11.17c-.354-8.693-5.661-16.679-16.224-19.256V4.5H28.079V15.417c-9.805,2.123-17.69,8.491-17.69,18.246,0,11.675,9.654,17.487,23.755,20.874,12.635,3.033,15.163,7.48,15.163,12.181,0,3.487-2.477,9.047-13.646,9.047-10.412,0-14.506-4.65-15.061-10.614H9.48c.607,11.069,8.9,17.285,18.6,19.358V95.475H43.242V84.609c9.856-1.87,17.69-7.581,17.69-17.942C60.932,52.313,48.65,47.41,37.177,44.428Z" transform="translate(505.021 218)"/><g class="d" transform="matrix(1, 0, 0, 1, 453, 184)"><g class="a" transform="translate(9 6)"><circle class="b" cx="78" cy="78" r="78"/><circle class="c" cx="78" cy="78" r="76.5"/></g></g></g></svg>