<svg xmlns="http://www.w3.org/2000/svg" width="42" height="48" viewBox="0 0 42 48"><defs><style>.a{fill:#6915cf;}.b{fill:none;stroke:#6915cf;stroke-linecap:round;stroke-width:2px;}</style></defs><path class="a" d="M44.521,12.666a42.5,42.5,0,0,0-4.086-4.674,42.514,42.514,0,0,0-4.674-4.086c-2.418-1.773-3.59-1.978-4.262-1.978H8.249A3.754,3.754,0,0,0,4.5,5.678v40.5a3.754,3.754,0,0,0,3.75,3.75h34.5a3.754,3.754,0,0,0,3.75-3.75V16.928c0-.672-.2-1.845-1.978-4.262Zm-6.208-2.552a40.914,40.914,0,0,1,3.4,3.814H34.5V6.712a40.872,40.872,0,0,1,3.814,3.4ZM43.5,46.178a.76.76,0,0,1-.75.75H8.249a.76.76,0,0,1-.75-.75V5.678a.76.76,0,0,1,.75-.75H31.5v10.5a1.5,1.5,0,0,0,1.5,1.5H43.5Z" transform="translate(-4.499 -1.928)"/><g transform="translate(11.171 33.006)"><line class="b" x2="19"/><line class="b" x2="19" transform="translate(0 4)"/><line class="b" x2="19" transform="translate(0 8)"/></g><path class="a" d="M8.81.563A8.247,8.247,0,1,0,17.057,8.81,8.246,8.246,0,0,0,8.81.563Zm3.848,9.045L6.8,12.966a.8.8,0,0,1-1.187-.7V5.351a.8.8,0,0,1,1.187-.7l5.853,3.558A.8.8,0,0,1,12.657,9.608Z" transform="translate(12.269 12.943)"/></svg>