<svg xmlns="http://www.w3.org/2000/svg" width="28.7" height="31.699" viewBox="0 0 28.7 31.699"><defs><style>.a{fill:#fff;}</style></defs><g transform="translate(-519.15 -1956.237)"><path class="a" d="M544,1987.936H523a3.854,3.854,0,0,1-3.85-3.85v-16.5a.849.849,0,0,1,.328-.671l13.5-10.5a.852.852,0,0,1,1.044,0l13.5,10.5a.847.847,0,0,1,.329.671v16.5A3.854,3.854,0,0,1,544,1987.936ZM520.85,1968v16.084a2.152,2.152,0,0,0,2.15,2.15h21a2.152,2.152,0,0,0,2.15-2.15V1968l-12.65-9.839Z"/><path class="a" d="M538,1987.936a.85.85,0,0,1-.85-.85v-14.15h-7.3v14.15a.85.85,0,0,1-1.7,0v-15a.85.85,0,0,1,.85-.85h9a.85.85,0,0,1,.85.85v15A.85.85,0,0,1,538,1987.936Z"/></g></svg>