<svg xmlns="http://www.w3.org/2000/svg" width="42" height="48" viewBox="0 0 42 48"><defs><style>.a{fill:#6915cf;}</style></defs><path class="a" d="M44.521,12.666a42.51,42.51,0,0,0-4.087-4.674,42.514,42.514,0,0,0-4.674-4.086c-2.418-1.773-3.59-1.978-4.262-1.978H8.249A3.754,3.754,0,0,0,4.5,5.678v40.5a3.754,3.754,0,0,0,3.75,3.75h34.5a3.754,3.754,0,0,0,3.75-3.75V16.928c0-.672-.2-1.845-1.978-4.262Zm-6.208-2.552a40.914,40.914,0,0,1,3.4,3.814H34.5V6.712A40.872,40.872,0,0,1,38.313,10.114ZM43.5,46.178a.76.76,0,0,1-.75.75H8.249a.76.76,0,0,1-.75-.75V5.678a.76.76,0,0,1,.75-.75H31.5v10.5a1.5,1.5,0,0,0,1.5,1.5H43.5ZM36,40.928H15a1.5,1.5,0,1,1,0-3H36a1.5,1.5,0,1,1,0,3Zm0-6H15a1.5,1.5,0,1,1,0-3H36a1.5,1.5,0,1,1,0,3Zm0-6H15a1.5,1.5,0,1,1,0-3H36a1.5,1.5,0,1,1,0,3Z" transform="translate(-4.499 -1.928)"/></svg>