<svg xmlns="http://www.w3.org/2000/svg" width="29.283" height="25.627" viewBox="0 0 29.283 25.627"><defs><style>.a{fill:#380e7f;}</style></defs><path class="a" d="M970.277,1474.42h-3.664a.913.913,0,0,0-.914.912v0h0v1.831a.912.912,0,0,0,.912.914h3.662a.913.913,0,0,0,.915-.912v-1.829a.913.913,0,0,0-.909-.918h0Zm0-7.322h-7.322a.914.914,0,0,0-.915.912v0h0v1.833a.914.914,0,0,0,.912.915h7.325a.913.913,0,0,0,.914-.913v-1.832a.913.913,0,0,0-.91-.917h0Zm-14.642-10.983h14.642a.913.913,0,0,0,.914-.912h0v-1.831a.913.913,0,0,0-.91-.915H955.635a.914.914,0,0,0-.915.911v1.834a.914.914,0,0,0,.913.915h0Zm14.642,3.662H959.295a.914.914,0,0,0-.915.912v0h0v1.829a.914.914,0,0,0,.913.915h10.984a.914.914,0,0,0,.914-.913h0v-1.83a.914.914,0,0,0-.912-.919h0Zm12.809,10.98h-2.741v-17.391a.913.913,0,0,0-.913-.914H977.6a.913.913,0,0,0-.914.912h0v17.388h-2.741a.916.916,0,0,0-.645,1.562l4.57,5.492a.914.914,0,0,0,1.29,0l4.58-5.491a.917.917,0,0,0-.647-1.563Z" transform="translate(-954.72 -1452.452)"/></svg>