<svg xmlns="http://www.w3.org/2000/svg" width="35.843" height="35.843" viewBox="0 0 35.843 35.843"><defs><style>.a{fill:#fff;fill-rule:evenodd;}</style></defs><path class="a" d="M1025.918,104.777l-3.159-1.209a1.684,1.684,0,0,1-.934-2.261l1.379-3.086a1.686,1.686,0,0,0-.348-1.877l-2.211-2.209a1.681,1.681,0,0,0-1.877-.348l-3.086,1.38a1.686,1.686,0,0,1-2.26-.935l-1.208-3.159a1.683,1.683,0,0,0-1.573-1.082h-3.124a1.688,1.688,0,0,0-1.575,1.082l-1.208,3.159a1.684,1.684,0,0,1-2.258.935l-3.088-1.38a1.682,1.682,0,0,0-1.877.348l-2.21,2.209a1.688,1.688,0,0,0-.348,1.877l1.38,3.086a1.685,1.685,0,0,1-.935,2.261l-3.158,1.209a1.686,1.686,0,0,0-1.083,1.573v3.125a1.686,1.686,0,0,0,1.083,1.573l3.158,1.209a1.683,1.683,0,0,1,.935,2.258l-1.38,3.086a1.688,1.688,0,0,0,.348,1.878l2.21,2.209a1.684,1.684,0,0,0,1.877.35l3.088-1.38a1.681,1.681,0,0,1,2.258.935l1.208,3.158a1.69,1.69,0,0,0,1.575,1.083h3.124a1.686,1.686,0,0,0,1.573-1.083l1.208-3.158a1.684,1.684,0,0,1,2.26-.935l3.086,1.38a1.684,1.684,0,0,0,1.877-.35l2.211-2.209a1.686,1.686,0,0,0,.348-1.878l-1.379-3.086a1.681,1.681,0,0,1,.934-2.258l3.159-1.209a1.685,1.685,0,0,0,1.082-1.573V106.35A1.685,1.685,0,0,0,1025.918,104.777Zm-15.28,10.965a7.984,7.984,0,1,1,6.27-6.267A7.99,7.99,0,0,1,1010.638,115.742Z" transform="translate(-991.157 -89.991)"/></svg>