<svg xmlns="http://www.w3.org/2000/svg" width="30.199" height="28.7" viewBox="0 0 30.199 28.7"><defs><style>.a{fill:#fff;}</style></defs><path class="a" d="M761.653,1988.893h-21a3.853,3.853,0,0,1-3.849-3.85v-21a3.853,3.853,0,0,1,3.849-3.85h21a3.867,3.867,0,0,1,3.85,3.847v2.353H751.15a2.153,2.153,0,0,0-2.15,2.15v12a2.152,2.152,0,0,0,2.15,2.15H765.5v2.35A3.867,3.867,0,0,1,761.653,1988.893Zm-21-27a2.153,2.153,0,0,0-2.15,2.15v21a2.152,2.152,0,0,0,2.15,2.15h21a2.165,2.165,0,0,0,2.151-2.153v-.647H751.15a3.853,3.853,0,0,1-3.849-3.85v-12a3.853,3.853,0,0,1,3.849-3.85H763.8v-.65a2.164,2.164,0,0,0-2.154-2.15Zm26.35,19.5H750.3v-13.7H767Zm-15-1.7h13.3v-10.3H752Zm5.157-2.05h-.007a3.1,3.1,0,1,1,.007,0Zm-.007-4.5a1.4,1.4,0,0,0,0,2.8h.006a1.4,1.4,0,0,0-.006-2.8Z" transform="translate(-736.801 -1960.193)"/></svg>